<?xml version="1.0" encoding="UTF-8" standalone="no"?>
<!DOCTYPE svg PUBLIC "-//W3C//DTD SVG 1.1//EN" "http://www.w3.org/Graphics/SVG/1.1/DTD/svg11.dtd">
<svg width="100%" height="100%" viewBox="0 0 2224 1668" version="1.1" xmlns="http://www.w3.org/2000/svg" xmlns:xlink="http://www.w3.org/1999/xlink" xml:space="preserve" xmlns:serif="http://www.serif.com/" style="fill-rule:evenodd;clip-rule:evenodd;stroke-linejoin:round;stroke-miterlimit:2;">
    <g transform="matrix(1,0,0,1,-2170.7,264.129)">
        <g transform="matrix(0.384225,0,0,0.502641,2067.48,567.552)">
            <g>
                <clipPath id="_clip1">
                    <path d="M6084.1,1258.62L6108.37,1258.62L6108.37,1653.78L6084.1,1653.78L6084.1,1258.62ZM6002.24,1155.1L6026.51,1155.1L6026.51,1653.78L6002.24,1653.78L6002.24,1155.1ZM5920.36,1087.85L5944.63,1087.85L5944.63,1653.78L5920.36,1653.78L5920.36,1087.85ZM5838.48,1043.61L5862.76,1043.61L5862.76,1653.78L5838.48,1653.78L5838.48,1043.61ZM5019.75,1038.23L5044.03,1038.23L5044.03,1653.78L5019.75,1653.78L5019.75,1038.23ZM5101.63,1036.95L5125.9,1036.95L5125.9,1653.78L5101.63,1653.78L5101.63,1036.95ZM4937.88,1030.22L4962.15,1030.22L4962.15,1653.78L4937.88,1653.78L4937.88,1030.22ZM5183.51,1028.58L5207.78,1028.58L5207.78,1653.78L5183.51,1653.78L5183.51,1028.58ZM5265.39,1015.47L5289.66,1015.47L5289.66,1653.78L5265.39,1653.78L5265.39,1015.47ZM5756.61,1015.44L5780.88,1015.44L5780.88,1653.78L5756.61,1653.78L5756.61,1015.44ZM4856.02,1008.93L4880.29,1008.93L4880.29,1653.78L4856.02,1653.78L4856.02,1008.93ZM5347.26,1003.86L5371.53,1003.86L5371.53,1653.78L5347.26,1653.78L5347.26,1003.86ZM5674.74,998.982L5699.01,998.982L5699.01,1653.78L5674.74,1653.78L5674.74,998.982ZM5429.12,995.252L5453.4,995.252L5453.4,1653.78L5429.12,1653.78L5429.12,995.252ZM5592.88,991.436L5617.15,991.436L5617.15,1653.78L5592.88,1653.78L5592.88,991.436ZM5511,990.707L5535.27,990.707L5535.27,1653.78L5511,1653.78L5511,990.707ZM4774.14,963.904L4798.41,963.904L4798.41,1653.78L4774.14,1653.78L4774.14,963.904ZM3054.8,890.261L3079.07,890.261L3079.07,1653.78L3054.8,1653.78L3054.8,890.261ZM3136.67,889.217L3160.96,889.217L3160.96,1653.78L3136.67,1653.78L3136.67,889.217ZM2972.94,884.696L2997.22,884.696L2997.22,1653.78L2972.94,1653.78L2972.94,884.696ZM3218.56,882.339L3242.82,882.339L3242.82,1653.78L3218.56,1653.78L3218.56,882.339ZM2891.07,871.27L2915.33,871.27L2915.33,1653.78L2891.07,1653.78L2891.07,871.27ZM3300.43,870.467L3324.71,870.467L3324.71,1653.78L3300.43,1653.78L3300.43,870.467ZM3382.29,854.039L3406.56,854.039L3406.56,1653.78L3382.29,1653.78L3382.29,854.039ZM2809.18,848.183L2833.47,848.183L2833.47,1653.78L2809.18,1653.78L2809.18,848.183ZM3464.16,833.491L3488.45,833.491L3488.45,1653.78L3464.16,1653.78L3464.16,833.491ZM4692.27,815.704L4716.54,815.704L4716.54,1653.78L4692.27,1653.78L4692.27,815.704ZM2727.32,812.8L2751.58,812.8L2751.58,1653.78L2727.32,1653.78L2727.32,812.8ZM3546.06,809.227L3570.32,809.227L3570.32,1653.78L3546.06,1653.78L3546.06,809.227ZM3627.93,781.486L3652.19,781.486L3652.19,1653.78L3627.93,1653.78L3627.93,781.486ZM2645.45,760.612L2669.74,760.612L2669.74,1653.78L2645.45,1653.78L2645.45,760.612ZM3709.79,750.55L3734.06,750.55L3734.06,1653.78L3709.79,1653.78L3709.79,750.55ZM3791.68,719.165L3815.95,719.165L3815.95,1653.78L3791.68,1653.78L3791.68,719.165ZM4610.4,718.387L4634.67,718.387L4634.67,1653.78L4610.4,1653.78L4610.4,718.387ZM3873.55,691.583L3897.81,691.583L3897.81,1653.78L3873.55,1653.78L3873.55,691.583ZM2563.56,682.628L2587.85,682.628L2587.85,1653.78L2563.56,1653.78L2563.56,682.628ZM4528.51,671.764L4552.8,671.764L4552.8,1653.78L4528.51,1653.78L4528.51,671.764ZM3955.39,668.313L3979.68,668.313L3979.68,1653.78L3955.39,1653.78L3955.39,668.313ZM4037.28,649.577L4061.57,649.577L4061.57,1653.79L4037.28,1653.79L4037.28,649.577ZM4446.66,645.009L4470.93,645.009L4470.93,1653.78L4446.66,1653.78L4446.66,645.009ZM4119.15,635.834L4143.44,635.834L4143.44,1653.78L4119.15,1653.78L4119.15,635.834ZM4364.77,630.623L4389.06,630.623L4389.06,1653.78L4364.77,1653.78L4364.77,630.623ZM4201.04,627.548L4225.31,627.548L4225.31,1653.79L4201.04,1653.79L4201.04,627.548ZM4282.91,625.409L4307.17,625.409L4307.17,1653.78L4282.91,1653.78L4282.91,625.409ZM2481.7,557.584L2505.99,557.584L2505.99,1653.78L2481.7,1653.78L2481.7,557.584ZM1008,500.499L1032.26,500.499L1032.26,1653.78L1008,1653.78L1008,500.499ZM926.108,499.15L950.395,499.15L950.395,1653.78L926.108,1653.78L926.108,499.15ZM1089.87,496.683L1114.13,496.683L1114.13,1653.78L1089.87,1653.78L1089.87,496.683ZM844.241,492.637L868.505,492.637L868.505,1653.79L844.241,1653.79L844.241,492.637ZM1171.73,487.679L1196,487.679L1196,1653.78L1171.73,1653.78L1171.73,487.679ZM762.373,480.779L786.637,480.779L786.637,1653.78L762.373,1653.78L762.373,480.779ZM1253.6,473.195L1277.89,473.195L1277.89,1653.79L1253.6,1653.79L1253.6,473.195ZM680.506,463.135L704.77,463.135L704.77,1653.79L680.506,1653.79L680.506,463.135ZM1335.49,452.782L1359.75,452.782L1359.75,1653.78L1335.49,1653.78L1335.49,452.782ZM2399.83,452.369L2424.09,452.369L2424.09,1653.78L2399.83,1653.78L2399.83,452.369ZM598.639,439.004L622.903,439.004L622.903,1653.78L598.639,1653.78L598.639,439.004ZM1417.36,425.917L1441.62,425.917L1441.62,1653.78L1417.36,1653.78L1417.36,425.917ZM516.749,406.926L541.035,406.926L541.035,1653.79L516.749,1653.79L516.749,406.926ZM1499.22,392.453L1523.49,392.453L1523.49,1653.78L1499.22,1653.78L1499.22,392.453ZM2317.96,386.731L2342.22,386.731L2342.22,1653.78L2317.96,1653.78L2317.96,386.731ZM434.881,364.543L459.145,364.543L459.145,1653.78L434.881,1653.78L434.881,364.543ZM1581.09,361.019L1605.38,361.019L1605.38,1653.78L1581.09,1653.78L1581.09,361.019ZM2236.07,343.352L2260.36,343.352L2260.36,1653.78L2236.07,1653.78L2236.07,343.352ZM1662.98,335.029L1687.24,335.029L1687.24,1653.78L1662.98,1653.78L1662.98,335.029ZM2154.23,315.211L2178.49,315.211L2178.49,1653.78L2154.23,1653.78L2154.23,315.211ZM1744.82,314.689L1769.11,314.689L1769.11,1653.78L1744.82,1653.78L1744.82,314.689ZM352.994,306.086L377.28,306.086L377.28,1653.78L352.994,1653.78L352.994,306.086ZM1826.74,300.326L1851.01,300.326L1851.01,1653.79L1826.74,1653.79L1826.74,300.326ZM2072.35,298.637L2096.61,298.637L2096.61,1653.79L2072.35,1653.79L2072.35,298.637ZM1990.48,291.456L2014.74,291.456L2014.74,1653.79L1990.48,1653.79L1990.48,291.456ZM1908.59,292.367L1932.88,292.367L1932.88,1653.78L1908.59,1653.78L1908.59,292.367ZM271.159,216.862L295.422,216.862L295.422,1653.78L271.159,1653.78L271.159,216.862Z"/>
                </clipPath>
                <g clip-path="url(#_clip1)">
                    <rect x="-0" y="0" width="6046.76" height="2185.83" style="fill:url(#_Linear2);"/>
                </g>
            </g>
        </g>
        <g transform="matrix(1.74306,0,0,2.08348,2164.86,-263.162)">
            <rect x="0.565" y="2.661" width="1276.02" height="796.922" style="fill:none;"/>
        </g>
    </g>
    <defs>
        <linearGradient id="_Linear2" x1="0" y1="0" x2="1" y2="0" gradientUnits="userSpaceOnUse" gradientTransform="matrix(6046.76,0,0,6046.76,-5.68434e-14,1092.92)"><stop offset="0" style="stop-color:rgb(205,0,123);stop-opacity:0.75"/><stop offset="0.5" style="stop-color:rgb(76,39,216);stop-opacity:0.75"/><stop offset="1" style="stop-color:rgb(88,224,217);stop-opacity:0.75"/></linearGradient>
    </defs>
</svg>
