<?xml version="1.0" encoding="UTF-8" standalone="no"?><!DOCTYPE svg PUBLIC "-//W3C//DTD SVG 1.1//EN" "http://www.w3.org/Graphics/SVG/1.1/DTD/svg11.dtd"><svg width="100%" height="100%" viewBox="0 0 5791 3275" version="1.1" xmlns="http://www.w3.org/2000/svg" xmlns:xlink="http://www.w3.org/1999/xlink" xml:space="preserve" xmlns:serif="http://www.serif.com/" style="fill-rule:evenodd;clip-rule:evenodd;stroke-linejoin:round;stroke-miterlimit:2;"><path d="M5282.72,2783.67l98.527,0c4.007,0 7.247,-3.246 7.247,-7.246c-0,-4 -3.24,-7.246 -7.247,-7.246l-98.527,-0c-3.999,-0 -7.238,3.246 -7.238,7.246c-0,4 3.239,7.246 7.238,7.246Zm-387.998,0l235.255,0c4.008,0 7.247,-3.246 7.247,-7.246c-0,-4 -3.239,-7.246 -7.247,-7.246l-235.255,-0c-4,-0 -7.239,3.246 -7.239,7.246c-0,4 3.239,7.246 7.239,7.246Zm14.848,-2170.82l189.8,-0c15.631,-0 28.34,-12.717 28.34,-28.34c0,-15.63 -12.709,-28.34 -28.34,-28.34l-189.8,-0c-15.623,-0 -28.34,12.71 -28.34,28.34c0,15.623 12.717,28.34 28.34,28.34Zm0,-42.188l189.8,0c7.638,0 13.855,6.21 13.855,13.848c0,7.637 -6.217,13.847 -13.855,13.847l-189.8,0c-7.63,0 -13.847,-6.21 -13.847,-13.847c-0,-7.638 6.217,-13.848 13.847,-13.848Z" style="fill:#ed0a7e;fill-opacity:0.47;fill-rule:nonzero;"/><path d="M3664.17,2860.97l712.539,0c37.919,0 68.773,-32.658 68.773,-72.803c0,-40.056 -30.731,-72.664 -68.551,-72.795l-0.222,0c-30.382,0 -55.089,-26.159 -55.089,-58.31c0,-32.145 24.707,-58.303 55.089,-58.303l1413.78,-0l0,-14.493l-1413.78,0c-37.926,0 -68.781,32.659 -68.781,72.796c0,40.064 30.731,72.672 68.559,72.802l0.222,0c30.368,0 55.082,26.152 55.082,58.303c-0,32.088 -24.615,58.206 -54.904,58.31l-0.178,0.001l-712.538,-0l39.411,-41.709c2.676,-2.834 2.676,-7.421 -0,-10.247c-1.335,-1.42 -3.088,-2.123 -4.841,-2.123c-1.752,0 -3.505,0.703 -4.84,2.123l-50.978,53.96l-0.811,0.982c-1.752,2.54 -1.745,6.018 0.02,8.55c0.238,0.342 0.502,0.66 0.791,0.952l50.978,53.96c2.67,2.833 7.011,2.833 9.681,-0c2.676,-2.827 2.676,-7.413 -0,-10.239l-39.412,-41.717Zm-1122.54,-58.475l294.567,-0c21.187,-0 38.428,17.241 38.428,38.428c0,21.196 -17.241,38.437 -38.428,38.437l-294.567,0c-21.187,0 -38.428,-17.25 -38.428,-38.437c0,-21.196 17.241,-38.428 38.428,-38.428Zm-0,58.156l294.567,0c10.884,0 19.738,-8.845 19.738,-19.728c0,-10.883 -8.854,-19.728 -19.738,-19.728l-294.567,-0c-10.874,-0 -19.728,8.845 -19.728,19.728c-0,10.883 8.854,19.728 19.728,19.728Zm1532.74,-333.768c2.826,2.834 7.413,2.834 10.239,0l46.731,-46.723c1.355,-1.363 2.123,-3.203 2.123,-5.123c0,-1.928 -0.768,-3.768 -2.123,-5.131l-46.731,-46.723c-1.413,-1.413 -3.268,-2.123 -5.123,-2.123c-1.848,-0 -3.703,0.71 -5.116,2.123l-46.731,46.723c-1.348,1.363 -2.123,3.203 -2.123,5.131c0,1.92 0.775,3.76 2.123,5.123l46.731,46.723Zm5.116,-88.324l36.485,36.478l-36.485,36.477l-36.478,-36.477l36.478,-36.478Zm246.364,-131.808l501.656,-0c16.427,-0 29.782,-13.362 29.782,-29.782c-0,-16.428 -13.355,-29.79 -29.782,-29.79l-501.656,0c-16.42,0 -29.782,13.362 -29.782,29.79c0,16.42 13.362,29.782 29.782,29.782Zm0,-45.079l501.656,-0c8.434,-0 15.296,6.862 15.296,15.297c0,8.427 -6.862,15.289 -15.296,15.289l-501.656,0c-8.427,0 -15.297,-6.862 -15.297,-15.289c0,-8.435 6.87,-15.297 15.297,-15.297Zm-805.223,-1184.9c2.717,2.717 7.529,2.717 10.246,-0l154.446,-154.453c2.826,-2.826 2.826,-7.413 -0,-10.246l-154.446,-154.446c-1.413,-1.413 -3.275,-2.123 -5.123,-2.123c-1.855,-0 -3.71,0.71 -5.123,2.123l-154.453,154.446c-1.363,1.362 -2.124,3.202 -2.124,5.123c0,1.927 0.761,3.768 2.124,5.123l154.453,154.453Zm5.123,-303.776l144.199,144.2l-144.199,144.207l-144.207,-144.207l144.207,-144.2Zm1971.15,-301.891c3.506,-3.506 9.714,-3.506 13.221,0l120.585,120.585c1.748,1.749 2.739,4.133 2.739,6.611c0,2.478 -0.991,4.852 -2.739,6.61l-120.585,120.585c-1.758,1.749 -4.133,2.74 -6.611,2.74c-2.487,-0 -4.862,-0.991 -6.61,-2.74l-120.586,-120.585c-3.646,-3.646 -3.646,-9.574 0,-13.221l120.586,-120.585Zm6.61,234.551l107.355,-107.355l-107.355,-107.365l-107.364,107.365l107.364,107.355Zm-1515.99,-310.02l294.558,0c21.196,0 38.428,17.241 38.428,38.437c-0,21.187 -17.232,38.428 -38.428,38.428l-294.558,0c-21.196,0 -38.428,-17.241 -38.428,-38.437c-0,-21.187 17.232,-38.428 38.428,-38.428Zm-0,58.166l294.558,-0c10.883,-0 19.738,-8.855 19.738,-19.738c-0,-10.874 -8.855,-19.728 -19.738,-19.728l-294.558,-0c-10.883,-0 -19.738,8.854 -19.738,19.737c0,10.874 8.855,19.729 19.738,19.729Z" style="fill:#58e0d9;fill-opacity:0.53;fill-rule:nonzero;"/><rect x="0" y="0" width="5790.39" height="3274.84" style="fill:none;"/></svg>