<?xml version="1.0" encoding="UTF-8" standalone="no"?>
<!DOCTYPE svg PUBLIC "-//W3C//DTD SVG 1.1//EN" "http://www.w3.org/Graphics/SVG/1.1/DTD/svg11.dtd">
<svg width="100%" height="100%" viewBox="0 0 667 375" version="1.1" xmlns="http://www.w3.org/2000/svg" xmlns:xlink="http://www.w3.org/1999/xlink" xml:space="preserve" xmlns:serif="http://www.serif.com/" style="fill-rule:evenodd;clip-rule:evenodd;stroke-linejoin:round;stroke-miterlimit:2;">
    <g transform="matrix(0.115455,0,0,0.115455,-3.01822,-2.75506)">
        <path d="M5282.72,2783.67L5381.25,2783.67C5385.25,2783.67 5388.49,2780.42 5388.49,2776.42C5388.49,2772.42 5385.25,2769.18 5381.25,2769.18L5282.72,2769.18C5278.72,2769.18 5275.48,2772.42 5275.48,2776.42C5275.48,2780.42 5278.72,2783.67 5282.72,2783.67ZM4894.72,2783.67L5129.98,2783.67C5133.98,2783.67 5137.22,2780.42 5137.22,2776.42C5137.22,2772.42 5133.98,2769.18 5129.98,2769.18L4894.72,2769.18C4890.72,2769.18 4887.48,2772.42 4887.48,2776.42C4887.48,2780.42 4890.72,2783.67 4894.72,2783.67ZM4909.57,612.85L5099.37,612.85C5115,612.85 5127.71,600.133 5127.71,584.51C5127.71,568.88 5115,556.17 5099.37,556.17L4909.57,556.17C4893.95,556.17 4881.23,568.88 4881.23,584.51C4881.23,600.133 4893.95,612.85 4909.57,612.85ZM4909.57,570.662L5099.37,570.662C5107.01,570.662 5113.23,576.872 5113.23,584.51C5113.23,592.147 5107.01,598.357 5099.37,598.357L4909.57,598.357C4901.94,598.357 4895.72,592.147 4895.72,584.51C4895.72,576.872 4901.94,570.662 4909.57,570.662Z" style="fill:rgb(237,10,126);fill-opacity:0.47;fill-rule:nonzero;"/>
    </g>
    <g transform="matrix(0.115455,0,0,0.115455,-3.01822,-2.75506)">
        <path d="M3664.17,2860.97L4376.71,2860.97C4414.63,2860.97 4445.48,2828.31 4445.48,2788.17C4445.48,2748.11 4414.75,2715.5 4376.93,2715.37L4376.71,2715.37C4346.33,2715.37 4321.62,2689.21 4321.62,2657.06C4321.62,2624.92 4346.33,2598.76 4376.71,2598.76L5790.49,2598.76L5790.49,2584.27L4376.71,2584.27C4338.78,2584.27 4307.93,2616.93 4307.93,2657.06C4307.93,2697.13 4338.66,2729.73 4376.49,2729.86L4376.71,2729.86C4407.08,2729.86 4431.79,2756.02 4431.79,2788.17C4431.79,2820.26 4407.18,2846.37 4376.89,2846.48L4376.71,2846.48L3664.17,2846.48L3703.58,2804.77C3706.26,2801.93 3706.26,2797.35 3703.58,2794.52C3702.25,2793.1 3700.49,2792.4 3698.74,2792.4C3696.99,2792.4 3695.24,2793.1 3693.9,2794.52L3642.92,2848.48L3642.11,2849.46C3640.36,2852 3640.37,2855.48 3642.13,2858.01C3642.37,2858.36 3642.63,2858.67 3642.92,2858.97L3693.9,2912.93C3696.57,2915.76 3700.91,2915.76 3703.58,2912.93C3706.26,2910.1 3706.26,2905.51 3703.58,2902.69L3664.17,2860.97ZM2541.63,2802.49L2836.2,2802.49C2857.38,2802.49 2874.62,2819.74 2874.62,2840.92C2874.62,2862.12 2857.38,2879.36 2836.2,2879.36L2541.63,2879.36C2520.44,2879.36 2503.2,2862.11 2503.2,2840.92C2503.2,2819.73 2520.44,2802.49 2541.63,2802.49ZM2541.63,2860.65L2836.2,2860.65C2847.08,2860.65 2855.93,2851.81 2855.93,2840.92C2855.93,2830.04 2847.08,2821.2 2836.2,2821.2L2541.63,2821.2C2530.76,2821.2 2521.9,2830.04 2521.9,2840.92C2521.9,2851.81 2530.76,2860.65 2541.63,2860.65ZM4074.37,2526.88C4077.2,2529.72 4081.78,2529.72 4084.61,2526.88L4131.34,2480.16C4132.69,2478.8 4133.46,2476.96 4133.46,2475.04C4133.46,2473.11 4132.69,2471.27 4131.34,2469.91L4084.61,2423.18C4083.2,2421.77 4081.34,2421.06 4079.49,2421.06C4077.64,2421.06 4075.78,2421.77 4074.37,2423.18L4027.64,2469.91C4026.29,2471.27 4025.52,2473.11 4025.52,2475.04C4025.52,2476.96 4026.29,2478.8 4027.64,2480.16L4074.37,2526.88ZM4079.49,2438.56L4115.97,2475.04L4079.49,2511.51L4043.01,2475.04L4079.49,2438.56ZM4325.85,2306.75L4827.51,2306.75C4843.93,2306.75 4857.29,2293.39 4857.29,2276.97C4857.29,2260.54 4843.93,2247.18 4827.51,2247.18L4325.85,2247.18C4309.43,2247.18 4296.07,2260.54 4296.07,2276.97C4296.07,2293.39 4309.43,2306.75 4325.85,2306.75ZM4325.85,2261.67L4827.51,2261.67C4835.94,2261.67 4842.8,2268.53 4842.8,2276.97C4842.8,2285.4 4835.94,2292.26 4827.51,2292.26L4325.85,2292.26C4317.42,2292.26 4310.55,2285.4 4310.55,2276.97C4310.55,2268.53 4317.42,2261.67 4325.85,2261.67ZM3520.63,1076.77C3523.34,1079.49 3528.16,1079.49 3530.87,1076.77L3685.32,922.319C3688.14,919.493 3688.14,914.906 3685.32,912.073L3530.87,757.627C3529.46,756.214 3527.6,755.504 3525.75,755.504C3523.89,755.504 3522.04,756.214 3520.63,757.627L3366.17,912.073C3364.81,913.435 3364.05,915.275 3364.05,917.196C3364.05,919.123 3364.81,920.964 3366.17,922.319L3520.63,1076.77ZM3525.75,772.996L3669.95,917.196L3525.75,1061.4L3381.54,917.196L3525.75,772.996ZM5496.9,471.105C5500.41,467.599 5506.61,467.599 5510.12,471.105L5630.71,591.69C5632.45,593.439 5633.44,595.823 5633.44,598.301C5633.44,600.779 5632.45,603.153 5630.71,604.911L5510.12,725.496C5508.36,727.245 5505.99,728.236 5503.51,728.236C5501.02,728.236 5498.65,727.245 5496.9,725.496L5376.31,604.911C5372.67,601.265 5372.67,595.337 5376.31,591.69L5496.9,471.105ZM5503.51,705.656L5610.86,598.301L5503.51,490.936L5396.15,598.301L5503.51,705.656ZM3987.52,395.636L4282.08,395.636C4303.27,395.636 4320.51,412.877 4320.51,434.073C4320.51,455.26 4303.27,472.501 4282.08,472.501L3987.52,472.501C3966.32,472.501 3949.09,455.26 3949.09,434.064C3949.09,412.877 3966.32,395.636 3987.52,395.636ZM3987.52,453.802L4282.08,453.802C4292.96,453.802 4301.82,444.947 4301.82,434.064C4301.82,423.19 4292.96,414.336 4282.08,414.336L3987.52,414.336C3976.64,414.336 3967.78,423.19 3967.78,434.073C3967.78,444.947 3976.64,453.802 3987.52,453.802Z" style="fill:rgb(88,224,217);fill-opacity:0.53;fill-rule:nonzero;"/>
    </g>
    <g transform="matrix(0.115455,0,0,0.115455,-3.01822,-2.75506)">
        <rect x="0" y="0" width="5790.39" height="3274.84" style="fill:none;"/>
    </g>
</svg>
