<?xml version="1.0" encoding="UTF-8" standalone="no"?><!DOCTYPE svg PUBLIC "-//W3C//DTD SVG 1.1//EN" "http://www.w3.org/Graphics/SVG/1.1/DTD/svg11.dtd"><svg width="100%" height="100%" viewBox="0 0 23625 6438" version="1.1" xmlns="http://www.w3.org/2000/svg" xmlns:xlink="http://www.w3.org/1999/xlink" xml:space="preserve" xmlns:serif="http://www.serif.com/" style="fill-rule:evenodd;clip-rule:evenodd;stroke-linejoin:round;stroke-miterlimit:2;"><rect x="0" y="0" width="23623.2" height="6437.46" style="fill:none;"/><clipPath id="_clip1"><path d="M23617,192.88c-41.557,13.459 -83.452,27.311 -125.319,41.136c41.755,-14.134 83.762,-28.548 125.291,-42.429l0,-47.823c-173.676,57.939 -349.6,118.603 -526.873,179.717c-1272.49,438.869 -2588.31,892.714 -3586.34,537.523c-1210.2,-430.721 -2137.11,-671.355 -2833.67,-735.645c-875.153,-80.726 -1398.54,109.444 -1600.43,581.188c-202.252,472.811 22.423,764.838 220.657,1022.47c59.709,77.608 116.074,150.889 159.093,226.136c122.903,214.925 142.262,400.936 57.574,552.78c-269.633,483.517 -1538.42,583.941 -2560.24,625.583c-63.896,2.191 -125.516,4.411 -184.55,6.771c-88.398,2.979 -173.086,5.929 -253.307,9.076c-485.625,16.55 -867.454,30.684 -998.561,87.527c-535.809,232.149 -892.293,831.263 -887.039,1490.76c5.311,670.259 390.062,1228.55 1029.19,1493.54c612.404,253.898 1455.66,-101.519 2334.13,-586.301c66.004,-34.982 132.288,-70.892 198.797,-107.645c66.649,-35.291 133.608,-71.566 200.791,-108.712c66.284,-35.067 132.905,-71.145 199.751,-108.179c65.47,-34.589 131.276,-70.246 197.307,-106.83c67.099,-35.404 134.507,-71.904 202.196,-109.444c65.975,-34.785 132.288,-70.723 198.881,-107.701c65.61,-34.533 131.585,-70.302 197.841,-107.139c65.525,-34.449 131.472,-70.19 197.7,-107.083c65.778,-34.477 131.978,-70.414 198.459,-107.476c65.694,-34.337 131.866,-70.302 198.347,-107.392c65.581,-34.196 131.725,-70.218 198.178,-107.364c65.89,-34.224 132.399,-70.471 199.189,-107.898c40.743,-21.074 81.738,-43.019 122.931,-65.554c343.84,-132.371 663.74,-206.017 940.874,-180.841c481.776,43.862 1164.65,372.416 1955.37,752.84c1222.39,588.212 2608.09,1254.82 3837.6,1176.34c127.707,-8.177 256.623,-31.218 386.128,-68.392l0,-46.98c-126.162,36.977 -256.004,61.563 -389.022,70.077c-1218.12,77.917 -2597.67,-586.161 -3815.03,-1171.9c-794.651,-382.335 -1480.98,-712.603 -1970.96,-757.167c-16.41,-1.489 -33.016,-2.473 -49.65,-3.316c34.87,0.084 69.319,1.208 102.896,4.243c461.91,42.035 1116.63,356.934 1874.73,721.567c1108.82,533.307 2356.53,1133.49 3485.78,1133.49c72.073,0 143.948,-2.529 214.925,-7.586c189.271,-12.083 371.995,-57.293 546.345,-125.741l0,-48.582c-175.193,70.471 -358.985,116.89 -549.239,129.084l-0.225,0c-70.077,5.002 -140.633,7.418 -211.834,7.418c-1118.82,0 -2361.81,-597.793 -3466.05,-1128.99c-762.084,-366.488 -1420.26,-683.101 -1890.29,-725.838c-16.859,-1.546 -33.971,-2.417 -51.055,-3.232c35.376,-0.056 70.246,1.068 104.273,4.159c442.044,40.237 1068.64,341.452 1794.19,690.321c1136.78,546.542 2425.34,1165.86 3563.78,1075.41c248.671,-15.903 485.737,-92.19 706.478,-204.528l0,-50.661c-221.499,115.456 -459.774,193.991 -709.512,209.923l-0.366,0.056c-74.292,5.929 -149.09,8.767 -224.562,8.767c-1070.13,-0 -2259.05,-571.634 -3316.14,-1079.88c-729.547,-350.724 -1359.54,-653.681 -1809.79,-694.62c-14.779,-1.321 -29.728,-2.192 -44.704,-2.951c33.212,0 65.975,1.04 97.923,3.962c422.234,38.355 1020.76,325.998 1713.78,659.048c1094.01,525.749 2333.83,1121.52 3426.71,1024.94c310.993,-19.921 603.498,-139.986 866.611,-307.48l-0,-56.253c-282.501,184.719 -575.905,299.753 -869.758,318.523l-0.59,0c-78.198,6.969 -157.154,10.256 -236.869,10.256c-1021.4,0 -2156.5,-545.446 -3166.49,-1030.87c-696.981,-334.933 -1298.93,-624.262 -1729.29,-663.319c-13.965,-1.292 -28.042,-2.107 -42.176,-2.866c32.342,-0.056 64.261,0.955 95.394,3.793c402.426,36.556 972.936,310.572 1633.47,627.943c1051.11,504.957 2242.84,1077.24 3289.56,974.34c349.264,-22.394 697.796,-185.505 1026.74,-441.678l-0,-56.141c-329.791,262.608 -679.728,430.215 -1030.03,452.581l-0.787,0.056c-81.963,8.064 -164.937,11.914 -248.727,11.914c-972.851,-0 -2054.16,-519.427 -3017.12,-981.955c-664.527,-319.226 -1238.41,-594.899 -1649.01,-632.214c-13.965,-1.264 -28.127,-1.939 -42.316,-2.697c32.481,-0.197 64.429,0.787 95.562,3.624c382.672,34.786 925.168,295.258 1553.34,596.867c1008.2,484.107 2151.16,1032.67 3152.16,923.678c407.399,-26.131 814.236,-256.117 1186.93,-604.874l-0,-60.468c-373.231,357.552 -781.754,594.085 -1190.28,620.132l-1.04,0.112c-85.672,9.329 -172.412,13.769 -260.163,13.769c-924.353,-0 -1952,-493.436 -2867.97,-933.233c-632.13,-303.49 -1178.05,-565.648 -1568.87,-601.165c-12.279,-1.124 -24.643,-1.826 -37.034,-2.529c30.683,-0.168 60.833,0.759 90.252,3.457c362.947,32.987 877.485,279.944 1473.31,565.873c965.293,463.23 2059.36,988.333 3014.82,872.961c468.26,-30.178 936.52,-348.055 1346.98,-807.492l-0,-66.621c-410.405,471.098 -880.913,798.95 -1350.52,828.903l-1.293,0.112c-89.156,10.818 -179.493,15.904 -271.009,15.904c-875.996,-0 -1850.28,-467.586 -2719.34,-884.65c-599.788,-287.84 -1117.75,-536.398 -1488.82,-570.145c-11.773,-1.067 -23.658,-1.742 -35.572,-2.416c30.178,-0.281 59.849,0.646 88.763,3.287c343.25,31.218 829.942,264.687 1393.51,535.022c876.613,420.493 1967.65,943.825 2877.19,822.159c533.729,-34.533 1068.67,-470.255 1507.09,-1060.27l-0,-80.446c-60.777,84.071 -123.043,165.135 -186.714,241.787c-307.565,370.562 -786.98,819.406 -1324.08,853.714l-1.573,0.168c-89.353,12.027 -180.504,17.618 -273.173,17.618c-837.163,0 -1794.53,-459.24 -2579.15,-835.59c-567.531,-272.217 -1057.65,-507.317 -1408.99,-539.236c-11.52,-1.04 -23.209,-1.602 -34.898,-2.22c29.981,-0.422 59.428,0.562 88.116,3.147c323.582,29.419 782.485,249.429 1313.85,504.169c835.815,400.74 1875.82,899.262 2739.37,771.217c514.96,-33.381 974.116,-464.944 1268.62,-821.232c140.829,-170.332 275.196,-361.429 398.604,-564.778l-0,-89.577c-452.609,767.873 -1079.17,1392.53 -1671.04,1430.32l-1.911,0.224c-92.275,13.769 -186.657,20.147 -282.754,20.147c-789.115,-0 -1690.96,-432.35 -2431.24,-787.261c-535.33,-256.679 -997.633,-478.319 -1329.34,-508.469c-10.115,-0.927 -20.399,-1.489 -30.627,-2.051c28.576,-0.449 56.562,0.478 83.817,2.922c303.969,27.649 735.167,234.285 1234.48,473.571c794.848,380.874 1784.02,854.866 2601.35,720.19c477.026,-31.049 905.977,-437.183 1181.96,-772.537c244.962,-297.731 469.131,-661.69 645.308,-1041.52l-0,-109.584c-415.547,944.725 -1149.93,1834.91 -1831.29,1878.49l-2.276,0.225c-94.945,15.763 -192.334,22.984 -291.69,22.984c-741.235,0 -1587.62,-405.572 -2283.78,-739.184c-503.242,-241.085 -937.868,-449.35 -1249.93,-477.786c-9.526,-0.871 -19.22,-1.292 -28.829,-1.826c27.986,-0.562 55.354,0.365 82.047,2.782c284.412,25.906 687.961,219.195 1155.29,442.999c753.852,361.008 1691.92,810.414 2463.11,669.051c732.666,-48.076 1530.41,-1128.54 1878.63,-2146.24c45.744,-133.664 81.879,-261.652 108.713,-382.813l-0,-263.563c-22.282,188.175 -72.719,401.105 -151.619,631.681c-343.643,1004.24 -1125.82,2070.15 -1839.94,2115.75l-2.698,0.337c-97.276,17.899 -197.419,26.131 -299.754,26.131c-693.552,0 -1484.72,-378.878 -2136.88,-691.22c-471.238,-225.715 -878.243,-420.661 -1170.75,-447.214c-7.867,-0.703 -15.847,-1.124 -23.827,-1.63c26.272,-0.534 51.954,0.281 76.99,2.557c264.939,24.08 641.008,204.051 1076.45,412.541c712.772,341.142 1599.87,765.681 2324.64,617.659c674.109,-44.564 1412.79,-1052.76 1737.86,-2002.69c217.566,-635.782 208.153,-1118.85 -25.823,-1325.35c-150.326,-132.737 -341.508,-184.943 -560.956,-184.943c-291.212,-0 -632.158,92.05 -993.026,210.007c745.423,-254.066 1432.12,-452.693 1825.24,-105.762c85.925,75.893 140.605,194.16 164.067,346.228l-0,-177.188c-31.639,-83.453 -76.287,-151.985 -134.058,-203.039c-160.61,-141.757 -364.885,-197.56 -599.423,-197.532c-313.746,-0 -681.583,99.918 -1070.83,227.456c712.21,-242.573 1373.7,-436.733 1804.34,-205.877l-0,-51.026c-137.935,-68.757 -296.438,-97.783 -470.676,-97.783c-335.748,0 -729.688,107.449 -1146.53,244.203c514.931,-175.249 1004.6,-326.11 1408.71,-326.081c72.381,-0 141.953,5.057 208.49,15.482l-0,-46.082c-66.565,-9.946 -135.912,-14.807 -207.872,-14.807c-356.035,-0 -773.942,113.939 -1216.15,259.011c517.544,-175.784 1010.33,-327.066 1424.06,-339.457l-0,-45.407c-367.836,10.93 -794.201,128.915 -1244.11,276.797c441.876,-150.158 866.695,-283.541 1244.11,-336.113l-0,-45.772c-324.817,44.592 -682.96,148.303 -1056.3,271.177c368.763,-125.206 726.175,-239.005 1056.33,-307.986l0,-46.306c-277.724,57.405 -574.022,146.42 -879.817,247.35c303.182,-102.981 599.086,-198.74 879.789,-270.419l-0,-46.868c-221.275,56.084 -451.878,127.342 -687.793,205.202c234.566,-79.602 465.001,-155.018 687.793,-219.055l-0,-47.065c-159.824,45.66 -323.497,97.221 -489.671,151.985c165.556,-56.085 329.285,-110.287 489.699,-159.908l0,-47.402c-112.618,34.701 -227.035,71.96 -342.295,110.174c115.091,-39.085 229.283,-77.299 342.295,-113.968l0,-47.57l0.056,-0Zm-8070.36,2337.17c92.949,-166.707 73.477,-367.723 -57.855,-597.428c-44.564,-77.888 -101.857,-152.405 -162.549,-231.25c-199.92,-259.882 -406.668,-528.615 -214.841,-976.981c458.791,-1072.38 2717.82,-411.276 4377.14,179.352c847.841,301.805 1913.44,31.021 2988.91,-324.115c-1078.19,363.172 -2155.99,663.403 -2997.9,363.706c-979.229,-348.505 -2173.55,-721.258 -3062.53,-721.23c-574.388,0.056 -1021.43,155.75 -1200.08,574.247c-191.294,448.479 20.624,727.524 207.591,973.694c60.159,79.209 117.002,154.035 158.559,231.418c115.513,204.866 132.906,382.082 51.701,526.677c-100.648,179.183 -344.992,303.21 -663.375,390.23c272.836,-91.797 479.499,-216.666 575.231,-388.32Zm1415.62,-80.305c-5.311,-94.129 -62.631,-174.884 -123.24,-260.331c-94.382,-133.018 -191.996,-270.588 -108.15,-478.516c233.919,-568.318 1483.85,-260.191 2491.23,98.429c470.17,167.41 1056.75,24.698 1650.84,-169.35c-596.866,202.197 -1195.67,374.215 -1659.91,208.94c-565.284,-201.184 -1211.43,-383.993 -1693.32,-383.964c-334.202,0.028 -589.448,87.976 -683.69,318.635c-84.717,212.256 17.224,355.052 107.167,481.045c56.647,79.35 110.118,154.316 107.561,235.886l-0.141,4.608l1.686,4.271c36.95,95.703 33.381,174.688 -10.986,241.422c-61.564,92.64 -197.504,153.838 -370.534,195.031c127.988,-45.998 226.839,-107.589 280.563,-190.761c55.129,-85.25 58.782,-187.95 10.93,-305.345Zm133.973,47.515c1.068,-94.833 -55.831,-174.576 -116.102,-258.955c-87.246,-122.284 -177.498,-248.671 -102.026,-437.717c168.984,-413.58 992.829,-381.239 2319.75,91.067c436.705,155.384 980.887,23.631 1532.2,-156.283c-554.1,187.95 -1110.48,349.206 -1541.23,195.873c-727.58,-258.954 -1981.5,-610.859 -2205.64,-57.91c-76.568,194.047 18.208,325.379 101.857,441.257c55.691,77.242 108.319,150.186 99.581,230.575l-0.562,5.114l1.714,4.861c30.093,85.757 24.783,156.396 -16.269,216.021c-58.276,84.66 -184.832,140.155 -345.049,177.16c115.232,-41.782 204.81,-97.473 254.628,-172.44c51.701,-77.72 57.433,-171.456 17.14,-278.623Zm133.973,47.654c8.121,-95.365 -48.526,-173.844 -108.403,-256.875c-80.53,-111.635 -163.842,-227.091 -96.462,-397.845c82.693,-204.107 337.04,-291.156 755.959,-258.927c358.732,27.677 840.198,146.168 1392.33,342.688c402.678,143.302 903.869,22.816 1411.94,-142.656c-510.829,173.48 -1024.3,323.469 -1420.91,182.247c-540.529,-192.39 -1820.83,-582.452 -2034.24,-50.381c-68.673,176.458 19.332,296.495 96.996,402.397c57.18,77.889 106.521,145.213 91.207,224.198l-1.04,5.535l1.658,5.451c23.378,75.781 16.353,138.244 -21.467,190.872c-56.59,78.76 -175.418,128.916 -325.548,161.566c105.341,-37.792 187.781,-88.257 234.622,-156.283c48.357,-70.274 56.224,-155.019 23.349,-251.987Zm133.973,47.824c15.848,-95.787 -40.546,-172.665 -100.142,-253.953c-74.264,-101.267 -151.001,-205.905 -91.432,-358.901c139.93,-348.814 860.457,-320.94 1976.83,76.399c368.426,131.164 826.318,22.17 1290.78,-128.747c-467.22,158.897 -937.362,297.366 -1299.86,168.366c-495.346,-176.289 -1668.45,-533.448 -1862.84,-42.878c-61.142,159.543 20.652,268.536 92.781,364.689c56.084,74.742 104.526,139.312 82.441,216.611l-1.686,5.872l1.517,5.929c16.859,66.059 8.177,120.345 -26.525,166.146c-53.05,69.965 -161.228,114.051 -296.775,142.459c90.982,-33.409 162.886,-77.58 205.315,-136.615c45.098,-62.772 55.017,-138.581 29.587,-225.377Zm133.777,48.02c24.221,-96.153 -34.533,-174.491 -91.376,-250.272c-68.251,-90.983 -138.862,-185.113 -86.824,-321.081c124.701,-314.646 799.652,-288.795 1805.41,69.207c334.427,118.996 749.272,21.298 1170.38,-115.148c-423.78,144.398 -850.988,271.628 -1179.37,154.766c-351.286,-125.009 -1511.36,-497.032 -1691.5,-35.46c-53.892,143.386 22.086,241.562 89.044,328.189c55.017,71.089 102.475,132.513 73.365,207.816l-2.332,6.041l1.208,6.351c10.537,56.421 0.281,102.812 -31.498,141.868c-49.51,60.918 -146.618,98.879 -266.907,123.015c76.147,-28.885 136.924,-66.649 174.604,-116.355c41.95,-55.326 53.977,-122.228 35.797,-198.937Zm-1587.08,459.437c38.045,-16.494 102.896,-26.131 184.747,-32.285c16.634,-0.59 33.325,-1.18 50.015,-1.826c-178.846,97.922 -295.202,308.436 -293.347,538.646c1.939,250.806 145.859,459.718 384.864,558.793c73.196,30.346 154.878,37.595 242.601,27.649c-3.259,1.742 -6.519,3.428 -9.834,5.198c-28.717,14.723 -57.658,29.84 -86.684,45.126c-155.862,46.784 -297.674,57.545 -415.238,8.766c-250.385,-103.767 -395.12,-313.634 -397.227,-575.736c-1.995,-254.543 134.676,-485.315 340.103,-574.331Zm1720.77,-411.136c33.634,-96.293 -25.12,-172.299 -82.019,-245.861c-65.526,-84.744 -127.454,-164.769 -82.581,-284.131c131.275,-336.394 930.113,-188.68 1633.95,61.873c300.315,106.886 671.973,20.512 1049.59,-101.407c-380.284,129.871 -764.276,245.805 -1058.66,141.026c-651.405,-231.868 -1392.73,-361.009 -1520.12,-27.818c-46.925,127.792 23.658,215.431 85.924,292.729c62.238,77.271 98.598,128.185 63.924,197.841l-2.922,5.845l0.618,6.462c4.58,47.121 -7.333,85.897 -36.387,118.463c-45.463,50.943 -129.815,82.357 -232.599,102.25c59.007,-24.08 106.943,-54.904 139.284,-94.719c38.944,-47.824 53.022,-105.875 42.007,-172.553Zm-1269.18,369.635c24.389,-0.871 48.806,-1.827 73.28,-2.894c-156.676,89.156 -258.308,275.28 -256.735,478.684c1.798,224.618 130.601,411.754 344.655,500.489l0.028,-0c62.154,25.766 131.079,32.818 204.95,25.934c-4.524,2.417 -9.02,4.805 -13.544,7.222c-29.222,14.92 -58.585,30.121 -88.144,45.744c-139.874,41.895 -267.075,51.504 -372.444,7.811c-224.984,-93.286 -355.08,-281.855 -356.934,-517.348c-1.771,-228.692 120.963,-436.087 305.457,-516.055c34.14,-14.808 90.252,-23.799 159.431,-29.587Zm1402.59,-321.053c44.227,-96.293 -14.836,-169.602 -71.988,-240.578c-60.046,-74.545 -116.721,-144.988 -78.76,-248.418c108.292,-283.288 812.522,-176.683 1462.41,54.623c267.581,95.254 598.186,18.826 934.131,-89.437c-338.473,115.934 -681.583,222.118 -943.151,129.028c-596.136,-212.199 -1244.34,-300.85 -1348.69,-20.231c-40.349,113.012 25.317,190.367 83.256,258.646c60.861,71.763 96.04,119.109 54.117,186.573l-3.175,5.255l-0.197,6.125c-2.922,106.718 -107.448,157.014 -252.267,181.235c47.739,-19.725 87.751,-44.396 116.102,-76.147c36.107,-40.462 52.292,-89.774 48.217,-146.674Zm-3802.87,2412.87c-428.023,-177.469 -675.542,-536.398 -679.11,-984.652c-3.428,-435.132 230.688,-829.943 582.592,-982.461c46.138,-19.978 134.619,-32.734 250.02,-41.782c-333.809,157.885 -554.438,537.185 -551.122,954.39c3.428,434.317 252.688,796.084 666.746,967.737c183.595,76.119 398.857,67.689 633.198,6.013c-341.255,131.95 -652.866,184.157 -902.324,80.755Zm2666.06,-2100.86c28.633,-1.068 57.321,-2.304 85.981,-3.709c3.822,-0.084 7.615,-0.169 11.436,-0.253c-134.422,80.333 -221.19,242.096 -219.785,418.61c1.573,198.431 115.316,363.678 304.39,442.044l-0.028,0c51.139,21.214 107.364,28.239 167.494,24.221c-6.575,3.512 -13.206,7.053 -19.781,10.565c-28.745,14.667 -57.658,29.644 -86.74,45.042c-124.054,37.118 -236.841,45.603 -330.128,6.94c-199.611,-82.806 -315.011,-250.076 -316.669,-458.959c-1.63,-202.899 107.196,-386.859 270.812,-457.779c30.262,-13.122 76.653,-21.355 133.018,-26.722Zm1208.54,-497.651c-54.82,-64.682 -106.634,-125.712 -75.22,-213.829c93.006,-249.991 734.352,-150.663 1290.9,47.431c233.666,83.171 521.506,17.898 814.291,-76.007c-295.258,101.408 -595.63,196.661 -823.283,115.597c-520.944,-185.421 -1092.69,-249.373 -1177.35,-12.616c-34.083,99.103 27.115,166.539 81.092,225.995c61.255,67.465 93.484,108.826 44.059,174.014l-3.091,4.046l-1.012,4.973c-17.589,83.2 -106.493,121.414 -222.82,139.144c78.31,-35.601 129.112,-90.084 133.664,-174.154c56.084,-96.378 -6.126,-169.743 -61.226,-234.594Zm-477.224,1178.7c-92.415,27.565 -176.205,33.859 -245.355,5.198c-148.837,-61.732 -234.903,-186.433 -236.139,-342.126c-1.208,-151.31 79.8,-288.374 201.522,-341.114c22.479,-9.751 51.87,-16.185 85.363,-20.793c16.718,-0.759 33.353,-1.63 49.846,-2.585c29.251,-0.338 58.754,-0.731 88.201,-1.349c-88.425,62.406 -144.454,174.463 -143.442,296.017c1.152,145.999 84.829,267.553 223.86,325.182c30.121,12.504 62.687,18.011 97.024,18.405c-11.071,5.872 -22.114,11.773 -33.269,17.786c-28.969,14.611 -58.192,29.756 -87.611,45.379Zm765.373,-1065.32c-45.295,-45.8 -88.117,-89.015 -68.645,-148.5c8.823,-26.216 30.346,-47.767 63.952,-64.064c149.596,-72.606 521.254,-31.611 883.835,97.445c165.472,58.923 367.246,16.072 573.236,-48.751c-208.125,71.792 -422.881,145.072 -582.283,88.342c-302.114,-107.505 -632.214,-137.064 -767.845,-68.729c-35.348,17.815 -57.883,41.923 -66.931,71.679c-22.422,73.674 33.409,124.223 78.311,164.825c31.245,28.267 60.804,54.989 60.917,82.413c0.084,18.039 -12.757,39.057 -38.13,62.519c-48.048,44.367 -111.073,59.737 -181.572,63.502c34.842,-18.91 63.166,-44.704 82.048,-80.221c85.756,-96.405 17.786,-165.134 -36.893,-220.46Zm173.816,575.287c-39.731,18.938 -80.502,40.434 -122.2,63.643c-39.225,19.022 -79.35,40.265 -120.177,62.772c-40.714,19.978 -82.3,41.866 -124.504,65.047c-27.508,13.628 -55.297,27.93 -83.396,42.907c-61.029,18.179 -116.158,22.31 -161.256,3.596c-98.064,-40.714 -154.794,-122.818 -155.609,-225.293c-0.759,-99.721 52.403,-189.917 132.287,-224.534l0,0.028c14.302,-6.21 29.644,-10.621 45.463,-14.246c75.107,1.237 150.158,1.489 217.931,-6.322c132.962,7.306 270.419,14.667 364.774,-72.438c35.657,-32.903 52.909,-64.345 52.769,-96.096c-0.253,-47.374 -38.72,-82.16 -75.866,-115.822c-49.369,-44.676 -78.451,-74.91 -65.329,-117.957c5.283,-17.421 20.091,-32.369 43.918,-44.367c123.745,-62.322 445.388,-31.133 732.272,70.976c175.419,62.463 399.728,-14.92 616.592,-89.718c221.977,-76.596 431.647,-148.893 542.72,-50.886c177.442,156.649 -149.708,665.567 -292.139,850.286c-225.124,215.627 -580.063,44.957 -865.29,-92.332c-134.395,-64.71 -250.497,-120.542 -335.748,-128.297c-98.766,-8.879 -218.465,46.615 -347.212,119.053Zm-694.03,361.963c-76.99,23.069 -146.73,28.38 -204.023,4.609c-123.464,-51.196 -194.834,-154.598 -195.874,-283.682c-0.983,-125.487 66.088,-239.173 166.877,-282.838c18.123,-7.84 39.197,-13.516 62.547,-17.618c8.486,-0.478 16.971,-0.983 25.373,-1.545c44.311,-0.057 89.212,-0.366 133.523,-1.686c-66.059,52.516 -107.617,139.48 -106.886,233.891c0.927,119.783 69.6,219.504 183.595,266.822c20.146,8.345 41.614,12.757 64.036,14.443c-15.735,8.317 -31.498,16.774 -47.402,25.401c-26.974,13.543 -54.23,27.62 -81.766,42.203Zm1037.14,-435.806c77.102,7.025 189.776,61.227 320.209,123.97c298.377,143.583 669.81,322.261 917.638,82.947l2.219,-2.417c21.889,-28.323 533.224,-696.194 287.25,-913.31c-47.907,-42.288 -108.066,-58.866 -176.57,-58.866c-76.315,-0 -163.111,20.652 -254.909,49.004c8.627,-2.951 17.253,-5.929 25.879,-8.908c276.235,-95.281 537.129,-185.28 676.89,-61.9c95.507,84.295 65.442,256.032 23.434,385.313c-108.263,332.854 -384.217,692.71 -441.06,698.133l-6.8,0.449l-5.479,4.103c-276.011,209.754 -685.994,13.29 -1015.36,-144.595c-157.407,-75.444 -293.684,-140.407 -395.597,-153.192c14.695,-1.602 28.857,-1.967 42.26,-0.731Zm377.417,-659.3c-378.963,-134.901 -756.83,-174.182 -918.845,-95.535c-44.958,21.832 -74.236,52.235 -87.218,90.645c-28.042,85.981 31.555,146.253 79.435,194.694c61.451,62.098 90.785,97.389 33.605,160.189l-3.4,4.917c-31.976,62.547 -105.622,89.409 -196.717,100.424c-1.685,-0.084 -3.343,-0.169 -5.001,-0.253c55.55,-27.452 95.113,-67.576 109.246,-126.611c69.797,-96.293 6.435,-166.118 -49.621,-227.85c-49.931,-55.045 -97.08,-107.027 -71.876,-180.476c71.145,-198.824 624.993,-135.603 1119.38,40.349c199.751,71.061 444.657,16.887 694.143,-62.547c-251.818,86.656 -509.537,171.007 -703.135,102.054Zm-2049.53,529.851c14.696,-0.253 29.447,-0.562 44.227,-0.871c-111.298,71.538 -182.471,208.602 -181.291,357.636c1.377,172.159 100.087,315.602 264.097,383.6c40.574,16.831 84.885,23.012 131.922,21.467c-9.862,5.254 -19.725,10.452 -29.644,15.791c-27.62,14.049 -55.438,28.464 -83.424,43.272c-108.375,32.453 -206.776,39.871 -288.065,6.181c-174.182,-72.213 -274.971,-218.268 -276.404,-400.514c-1.405,-177.104 93.512,-337.631 236.167,-399.447c25.935,-11.239 62.379,-18.629 105.735,-23.631c25.682,-0.983 51.251,-2.135 76.68,-3.484Zm1614.79,173.676c94.804,8.626 232.065,74.377 390.989,150.608c338.923,162.38 760.259,364.352 1058.13,143.02c98.541,-25.906 362.132,-402.678 467.332,-710.046c72.944,-213.183 62.379,-369.269 -30.571,-451.317c-58.163,-51.363 -131.416,-71.454 -215.009,-71.454c-97.923,0 -210.26,27.846 -329.06,65.189c1.433,-0.506 2.838,-0.984 4.243,-1.462c330.437,-113.967 642.582,-221.64 811.088,-72.915c93.062,82.16 99.075,259.517 17,499.449c-133.074,388.882 -451.71,816.624 -575.624,824.576l-5.676,0.337l-4.833,3.006c-92.163,57.124 -195.256,80.39 -304.165,80.39c-276.685,-0 -590.825,-150.27 -858.097,-278.062c-186.995,-89.493 -349.038,-166.848 -469.131,-181.038c14.977,-1.152 29.56,-1.517 43.384,-0.281Zm-3339.64,1642.38c-267.356,92.443 -510.969,122.256 -709.625,39.871c-377.277,-156.395 -595.405,-472.727 -598.524,-867.819c-3.063,-383.543 203.208,-731.513 513.301,-865.852c45.688,-19.809 133.187,-31.892 246.733,-40.209c-290.116,140.577 -481.495,471.969 -478.572,836.209c3.034,381.913 222.202,699.987 586.245,850.96l0.028,-0c141.475,58.669 304.165,60.467 480.763,23.602c-13.403,7.699 -26.918,15.483 -40.349,23.238Zm-1353.5,-827.611c3.231,408.13 237.432,748.064 626.482,909.349c163.701,67.858 354.152,64.317 561.209,14.33c-5.507,3.203 -11.042,6.435 -16.55,9.638c-307.368,114.22 -587.762,156.48 -813.785,62.8c-402.622,-166.989 -635.474,-504.619 -638.789,-926.264c-3.26,-409.337 216.947,-780.742 547.918,-924.156c45.913,-19.894 133.945,-32.313 248.418,-40.996c-312.004,149.203 -518.022,504.591 -514.903,895.299Zm-66.228,-873.101c-355.669,166.483 -590.937,569.807 -587.397,1013.54c3.625,460.449 267.947,844.104 707.04,1026.15c196.745,81.569 427.911,71.51 679.644,4.102c-358.704,137.738 -686.163,191.519 -948.798,82.609c-453.424,-188.006 -715.582,-568.177 -719.376,-1043.04c-3.652,-460.983 244.4,-879.227 617.238,-1040.77c46.447,-20.118 135.294,-33.212 251.649,-42.597Zm4702.04,102.587c112.9,10.228 275.365,87.948 463.512,177.947c380.789,182.134 854.275,408.635 1201.21,198.066c156.649,-20.849 478.01,-469.749 609.623,-854.529c89.718,-262.13 79.378,-451.681 -29.869,-548.143c-68.419,-60.384 -154.766,-84.042 -253.475,-84.042c-117.957,-0 -253.588,33.858 -397.284,79.265c376.041,-129.562 728.732,-246.451 921.965,-75.894c109.219,96.406 115.035,308.268 16.381,596.557c-156.817,458.285 -524.85,955.908 -715.975,968.103l-4.777,0.281l-4.214,2.248c-96.631,50.043 -202.562,70.892 -313.691,70.892c-320.996,-0 -685.46,-174.126 -993.812,-321.474c-218.325,-104.357 -407.23,-194.497 -546.064,-209.389c15.959,-0.956 31.582,-1.208 46.474,0.112Zm-2544.93,1196.12c-29.025,14.92 -58.163,30.093 -87.442,45.519c-187.472,56.309 -358.198,69.319 -499.955,10.537c-301.074,-124.841 -475.228,-377.305 -477.729,-692.569c-2.416,-306.132 162.128,-583.801 409.366,-690.94c45.491,-19.725 131.5,-30.599 241.393,-37.595c-224.366,114.669 -371.545,374.102 -369.269,658.682c2.388,303.266 176.374,555.871 465.422,675.682c95.815,39.732 203.826,46.447 320.237,29.616c-0.646,0.365 -1.348,0.731 -2.023,1.068Zm-1110.45,-636.176c2.613,329.454 191.631,603.891 505.715,734.127c107.139,44.423 228.355,50.914 359.238,30.487c-26.61,14.133 -53.303,28.463 -80.109,42.934c-205.624,62.631 -392.984,77.692 -548.368,13.291c-326.476,-135.379 -515.297,-409.085 -517.994,-750.986c-2.642,-331.899 175.783,-633.029 444.011,-749.272c45.491,-19.725 132.034,-31.049 243.332,-38.523c-246.339,123.296 -408.298,406.752 -405.825,717.942Zm-326.841,70.246c2.838,355.613 206.888,651.911 546.008,792.459c122.537,50.83 262.186,55.607 413.327,28.52c-21.045,11.717 -42.119,23.462 -63.249,35.32c-232.683,74.854 -444.629,95.338 -619.233,22.928c-351.848,-145.915 -555.364,-440.948 -558.258,-809.431c-2.838,-357.748 189.495,-682.285 478.656,-807.547c45.603,-19.782 132.512,-31.527 245.074,-39.423c-268.34,131.951 -445.022,439.375 -442.325,777.174Zm-1010.36,-721.707c-377.53,175.137 -627.409,602.457 -623.672,1072.6c3.849,486.72 283.26,892.18 747.361,1084.6c209.867,87.049 456.852,75.388 725.894,2.276c-376.041,143.499 -719.347,198.824 -995.105,84.436c-478.797,-198.487 -755.622,-599.957 -759.612,-1101.49c-3.878,-486.72 258.14,-928.399 651.855,-1099.01c46.727,-20.287 135.94,-33.69 253.279,-43.412Zm4935.2,135.771c131.304,11.914 319.535,101.857 537.41,205.961c422.769,202.056 948.546,453.256 1343.81,252.015c228.581,-21.945 602.542,-563.991 751.127,-998.252c104.947,-306.75 94.551,-535.921 -29.307,-645.28c-78.675,-69.431 -178.088,-96.658 -291.886,-96.658c-139.396,-0 -300.288,40.939 -470.676,95.282c421.897,-145.185 815.724,-271.684 1033.82,-79.238c125.403,110.652 131.023,357.046 15.819,693.693c-186.629,545.278 -610.831,1095.89 -856.411,1111.6l-4.046,0.225l-3.681,1.658c-99.693,43.946 -207.254,62.631 -319.563,62.631c-366.122,0 -781.782,-198.487 -1131.86,-365.729c-250.16,-119.474 -466.349,-222.708 -624.065,-238.33c16.971,-0.928 33.606,-1.04 49.509,0.421Zm-2613.32,-223.382c-201.522,106.409 -333.135,341.452 -331.084,598.749c2.164,277.022 161.145,507.794 425.157,617.237c84.436,34.983 179.128,42.035 281.069,28.745c-2.276,1.208 -4.581,2.444 -6.856,3.653c-28.408,14.611 -56.956,29.503 -85.616,44.592c-171.71,51.588 -328.049,63.502 -457.723,9.722c-275.73,-114.304 -435.16,-345.414 -437.436,-634.125c-2.22,-280.338 148.331,-534.572 374.72,-632.691c41.951,-18.152 117.508,-28.436 213.688,-35.011c8.037,-0.337 16.017,-0.562 24.081,-0.871Zm-2613.99,98.934c-398.576,184.045 -662.336,635.333 -658.402,1131.47c4.046,512.908 298.461,940.256 787.542,1143.04c222.483,92.248 484.557,79.294 770.121,0.956c-392.591,148.697 -750.958,205.315 -1039.25,85.756c-504.114,-209.024 -795.691,-631.82 -799.878,-1159.93c-4.046,-512.515 271.824,-977.627 686.529,-1157.32c46.868,-20.315 136.052,-33.943 253.335,-43.974Zm5169.99,168.647c149.961,13.6 364.239,116.018 612.376,234.509c464.579,221.921 1042.48,497.988 1485.65,305.289c290.987,-24.024 717.689,-631.371 892.377,-1141.89c121.469,-355.107 111.269,-618.726 -28.745,-742.359c-88.875,-78.451 -201.437,-109.247 -330.325,-109.247c-161.397,0 -348.42,48.414 -546.457,112c468.569,-161.003 904.712,-298.152 1148.02,-83.424c139.565,123.127 145.128,411.445 15.314,790.858c-196.745,574.921 -664.893,1233.8 -996.875,1254.99l-6.632,1.489c-101.575,38.635 -209.895,55.326 -322.457,55.326c-411.81,-0 -879.536,-223.411 -1271.82,-410.771c-282.276,-134.816 -526.058,-251.256 -702.853,-267.581c17.955,-0.702 35.545,-0.702 52.432,0.815Zm-5460.56,-157.463c-420.38,192.67 -698.751,667.927 -694.62,1190.47c4.243,539.153 313.746,988.277 827.835,1201.43c234.987,97.473 512.093,83.227 814.095,-0.253c-409.001,153.81 -782.4,211.693 -1083.31,86.964c-529.514,-219.56 -835.731,-663.599 -840.114,-1218.32c-4.271,-538.309 285.536,-1026.86 721.174,-1215.59c47.149,-20.484 136.923,-34.392 254.936,-44.704Zm5403.21,201.718c168.815,15.314 409.506,130.292 688.242,263.422c506.249,241.843 1135.99,542.749 1626.76,358.086c359.266,-27.002 832.302,-697.57 1033.4,-1285.31c138.103,-403.493 128.072,-701.645 -28.183,-839.58c-99.103,-87.498 -224.759,-121.891 -368.763,-121.863c-183.033,0 -395.71,55.663 -620.891,128.326c514.707,-176.627 992.576,-323.918 1260.89,-87.133c155.553,137.288 160.947,460.982 14.78,888.021c-219.421,641.094 -740.421,1373.09 -1137.34,1398.43l-5.704,1.096c-102.447,34.027 -210.794,48.947 -322.851,48.947c-458.032,-0 -978.386,-248.671 -1413.35,-456.43c-313.55,-149.821 -584.363,-279.242 -780.237,-297.001c-1.208,-0.112 -2.472,-0.028 -3.68,-0.14c19.472,-0.646 38.551,-0.534 56.927,1.124Zm-5693.86,-190.563c-442.156,201.325 -735.138,700.521 -730.811,1249.51c4.468,565.312 329.004,1036.3 868.128,1259.82c247.8,102.756 540.304,87.133 859.193,-1.77c-425.831,159.205 -814.657,218.605 -1128.38,88.482c-546.739,-226.698 -875.856,-703.949 -880.436,-1276.74c-4.439,-564.104 299.276,-1076.09 755.819,-1273.9c47.515,-20.597 137.767,-34.758 256.482,-45.407Zm5636.54,234.79c187.782,17.056 455.166,144.819 764.81,292.785c547.751,261.652 1229.28,587.257 1767.28,410.49c420.493,-30.066 946.186,-761.945 1174.4,-1428.8c152.378,-445.275 142.262,-786.699 -27.649,-936.688c-109.387,-96.574 -248.137,-134.507 -407.23,-134.507c-204.978,-0 -443.758,63.165 -696.475,145.072c561.35,-192.306 1081.48,-350.303 1375,-91.264c171.513,151.423 176.739,510.492 14.274,985.214c-246.732,720.977 -819.04,1512.57 -1277.83,1541.87l-4.917,0.871c-102.587,29.953 -210.176,43.187 -321.221,43.187c-504.591,0 -1078.3,-274.184 -1556.17,-502.596c-344.712,-164.741 -642.414,-307.059 -857.423,-326.588c-2.388,-0.224 -4.861,-0.281 -7.249,-0.477c20.624,-0.618 40.855,-0.337 60.411,1.433Zm-5927.16,-223.607c-463.961,209.951 -771.554,733.087 -766.974,1308.51c4.692,591.556 344.261,1084.32 908.365,1318.21c260.388,108.011 567.953,91.095 903.335,-3.034c-442.325,164.375 -846.211,225.096 -1172.52,89.802c-571.746,-237.094 -915.923,-736.206 -920.672,-1335.18c-4.664,-589.954 312.988,-1125.31 790.436,-1332.23c47.908,-20.708 138.61,-35.179 258.028,-46.081Zm5869.84,267.834c206.917,18.769 501.248,159.486 842.025,322.373c589.167,281.574 1322.34,631.989 1907.21,462.696c476.436,-33.156 1064.37,-838.793 1315.34,-1572.33c168.675,-492.874 158.784,-869.73 -27.171,-1033.85c-119.643,-105.622 -271.487,-147.095 -445.641,-147.095c-227.063,0 -492.087,70.696 -772.537,161.903c608.106,-208.068 1170.69,-376.799 1489.41,-95.506c187.5,165.527 192.558,560.057 13.824,1082.38c-269.435,787.373 -903.672,1652.44 -1418.35,1685.31l-4.214,0.646c-102.054,26.385 -208.434,38.186 -317.85,38.186c-551.459,-0 -1178.95,-300.091 -1700.07,-549.239c-376.125,-179.83 -700.886,-335.158 -935.143,-356.457c-4.299,-0.393 -8.738,-0.534 -13.066,-0.815c22.592,-0.646 44.761,-0.168 66.228,1.799Zm-6159.59,-257.044c-486.215,218.296 -808.812,765.681 -804.008,1367.91c4.861,617.715 359.519,1132.39 948.63,1376.65c273.089,113.236 595.883,94.972 947.984,-4.496c-459.015,169.658 -878.159,231.756 -1217.14,91.207c-596.782,-247.462 -955.992,-768.378 -960.965,-1393.57c-4.861,-615.748 326.728,-1174.54 825.081,-1390.51c49.088,-21.271 139.565,-36.022 260.416,-47.205Zm6102.24,301.271c226.164,20.511 547.581,174.238 919.716,352.157c630.472,301.496 1415.01,676.665 2046.77,514.594c549.633,-37.259 1183.5,-918.902 1456.17,-1715.77c184.972,-540.529 175.222,-952.76 -26.721,-1131.02c-129.843,-114.642 -294.809,-159.74 -484.079,-159.74c-248.671,0 -539.181,77.917 -846.689,178.144c654.13,-223.523 1258.33,-402.369 1601.97,-99.103c200.539,177.02 205.512,617.968 13.375,1179.54c-290.93,850.229 -969.647,1791.22 -1558.84,1828.78l-3.652,0.506c-100.93,23.209 -205.568,33.69 -313.017,33.69c-598.664,-0 -1280.36,-326.082 -1844.91,-596.22c-407.652,-195.031 -759.753,-363.481 -1013.31,-386.522c-5.648,-0.534 -11.408,-0.702 -17.14,-1.096c24.052,-0.618 47.543,-0.028 70.359,2.052Zm1054.14,-1754.1c-606.785,-215.993 -1300.53,-412.288 -1817.46,-412.26c-357.074,0 -629.853,93.736 -731.007,339.457c-93.147,231.081 16.465,385.566 113.18,521.9c57.461,81.007 111.775,157.519 115.063,239.96l0.168,4.074l1.574,3.765c44.002,105.819 42.204,193.121 -5.535,266.991c-67.605,104.667 -222.034,172.946 -418.723,218.353c151.816,-50.83 269.351,-119.755 329.089,-214.503c58.444,-92.697 59.99,-204.36 4.552,-331.955c-11.127,-93.314 -68.757,-174.744 -129.731,-260.893c-101.913,-144.005 -207.31,-292.898 -114.866,-520.214c198.824,-480.089 1119.61,-443.505 2662.72,105.762c504.675,179.577 1134.84,25.233 1772.78,-183.538c-640.756,216.891 -1283.17,400.57 -1781.8,223.101Zm24.193,-82.328c-1592.11,-566.661 -2507.19,-593.72 -2719.87,-80.221c-101.857,250.469 15.876,416.839 119.784,563.625c58.247,82.301 113.236,159.993 122.115,243.052l0.394,3.512l1.404,3.231c51.083,115.906 51.055,211.637 -0.028,292.701c-71.594,113.518 -237.263,187.866 -449.096,237.488c166.876,-55.129 295.651,-130.236 359.743,-233.947c61.845,-100.115 61.311,-220.741 -1.742,-358.62c-16.437,-92.332 -74.404,-174.182 -135.715,-260.782c-109.837,-155.103 -223.382,-315.488 -122.059,-562.698c215.486,-517.657 1169.01,-479.584 2834.12,113.068c539.771,192.081 1214.84,25.317 1897.71,-198.656c-685.573,231.981 -1372.86,428.248 -1906.76,238.247Zm24.221,-82.301c-1691.97,-602.233 -2664.74,-631.764 -2891.24,-87.667c-110.82,270.419 15.51,448.816 126.976,606.223c58.895,83.172 114.558,161.791 128.551,245.131l1.77,5.76c58.248,126.049 60.074,230.238 5.507,318.495c-75.613,122.397 -252.605,202.843 -479.668,256.679c182.022,-59.428 322.12,-140.717 390.512,-253.419c65.329,-107.561 62.631,-237.179 -7.952,-385.229c-21.271,-91.264 -79.49,-173.227 -141.138,-259.995c-118.182,-166.314 -240.41,-338.305 -129.899,-606.026c229.311,-548.284 1240.52,-507.766 3005.63,120.458c573.657,204.135 1291.38,26.215 2017.24,-212.059c-728.619,246.311 -1458.64,453.705 -2026.29,251.649Zm24.249,-82.328c-805.525,-286.716 -1462.89,-453.368 -1953.85,-495.347c-603.244,-51.616 -976.222,83.059 -1108.85,400.234c-120.064,290.959 15.342,481.55 134.816,649.663c59.485,83.733 115.681,162.858 134.451,246.226l1.714,4.833c65.469,136.249 69.15,248.868 11.127,344.374c-79.518,131.023 -267.272,217.426 -508.778,275.477c196.464,-63.671 347.269,-151.029 419.847,-272.414c68.728,-114.979 63.952,-253.532 -14.246,-411.81c-25.626,-90.028 -84.099,-171.906 -145.971,-258.505c-126.921,-177.667 -258.168,-361.402 -138.273,-650.113c132.372,-315.377 510.633,-448.31 1124.5,-395.12c511.7,44.339 1202.25,220.264 2052.53,522.911c607.066,216.105 1367.1,27.368 2135.62,-225.04c-771.301,260.472 -1543.5,478.6 -2144.64,264.631Zm24.22,-82.328c-1009.74,-359.407 -1780.85,-538.928 -2322.59,-538.899c-487.592,0.028 -789.425,145.549 -911.512,436.34c-129.534,312.004 15.398,514.903 143.274,693.861c59.962,83.987 116.58,163.308 139.761,246.451l1.573,3.99c72.775,146.421 78.283,267.525 16.86,370.309c-83.481,139.649 -282.052,231.981 -538.141,294.247c211.019,-67.914 372.669,-161.313 449.378,-291.437c72.156,-122.397 65.272,-269.885 -20.484,-438.419c-29.531,-88.679 -88.173,-170.136 -150.214,-256.37c-136.109,-189.102 -276.826,-384.695 -147.32,-694.845c140.689,-333.894 539.602,-474.47 1185.92,-417.795c543.788,47.683 1251.14,228.552 2162.54,552.976c641.543,228.328 1445.38,27.789 2257.88,-239.314c-815.331,275.224 -1631.34,505.125 -2266.92,278.905Zm24.193,-82.329c-1064.03,-378.738 -1876.52,-567.953 -2447.09,-567.924c-512.487,0.056 -829.802,152.799 -958.409,457.947c-139.312,333.584 15.623,548.902 152.35,738.932c60.327,83.789 117.283,162.999 144.482,245.692l1.349,3.204c80.108,156.62 87.498,286.266 22.591,396.299c-87.33,148.135 -296.495,246.395 -566.717,312.82c225.209,-72.101 397.311,-171.513 478.122,-310.206c75.641,-129.815 66.622,-286.239 -26.721,-464.973c-33.016,-87.161 -91.713,-168 -153.811,-253.532c-145.69,-200.763 -296.354,-408.269 -157.014,-740.392c274.55,-649.439 1425.94,-602.823 3519.91,142.515c675.232,240.325 1521.47,28.829 2376.79,-252.464c-858.153,289.469 -1716.56,530.301 -2385.84,292.082Zm24.249,-82.3c-2121.12,-755.004 -3291.16,-793.414 -3576.9,-117.395c-149.259,355.642 16.128,583.576 162.1,784.592c60.552,83.424 117.732,162.268 148.556,244.203l1.124,2.557c87.442,166.82 96.715,304.952 28.351,422.291c-91.263,156.648 -310.993,260.753 -595.433,331.392c239.426,-76.315 422.066,-181.74 506.923,-328.976c79.069,-137.176 68.026,-302.535 -32.959,-491.497c-36.135,-85.532 -94.748,-165.528 -156.817,-250.16c-155.694,-212.424 -316.726,-432.041 -167.298,-786.502c288.57,-680.572 1495.99,-631.512 3691.37,149.905c710.383,252.801 1601.44,28.885 2501.6,-267.61c-902.914,304.531 -1806.16,557.894 -2510.62,307.2Zm24.193,-82.356c-1013.4,-360.699 -1796.39,-562.024 -2393.68,-615.468c-733.143,-65.637 -1188.76,99.497 -1354.68,490.683c-159.402,378.176 16.944,618.727 172.524,830.926c60.665,82.778 117.986,160.975 151.957,241.955l0.927,1.883c93.511,174.631 105.032,325.463 34.139,448.394c-90.167,156.424 -307.761,263.647 -589.588,338.333c236.335,-79.519 416.39,-187.445 501.219,-336.001c82.637,-144.735 69.347,-319.254 -38.86,-517.292c-38.776,-84.098 -97.417,-163.223 -159.515,-246.956c-166.117,-224.198 -337.911,-455.981 -178.228,-833.286c167.916,-394.98 616.226,-553.904 1370.25,-485.822c618.333,55.804 1433.64,266.176 2492.58,643.06c744.018,264.856 1677.56,29.925 2620.57,-280.759c-945.764,318.776 -1891.47,583.07 -2629.62,320.35Zm24.221,-82.329c-1062.57,-378.204 -1881.53,-589.363 -2503.68,-645.532c-765.401,-69.122 -1241.92,103.627 -1416.05,513.273c-169.855,401.217 17.899,654.524 183.511,878.019c60.636,81.795 117.929,159.093 155.468,240.298c100.817,184.69 114.248,344.317 39.956,474.469c-93.455,163.673 -319.085,276.432 -612.208,355.22c247.687,-83.565 435.666,-197.138 523.923,-353.056c86.065,-152.041 70.723,-335.383 -45.182,-544.041c-41.052,-82.132 -99.413,-159.88 -161.117,-242.209c-177.02,-235.97 -360.024,-480.033 -189.832,-880.603c176.289,-413.777 644.408,-580.148 1431.67,-508.497c643.173,58.501 1494.47,278.68 2602.61,673.069c778.804,277.219 1756.74,30.149 2744.2,-295.483c-990.243,333.669 -1980.46,610.157 -2753.28,335.073Zm24.277,-82.3c-1111.74,-395.709 -1966.75,-616.675 -2613.71,-675.541c-797.967,-72.635 -1295.08,107.701 -1477.53,535.864c-180.419,424.651 19.192,690.771 195.256,925.589c60.468,80.643 117.62,156.79 157.323,236.168c108.207,194.75 123.633,363.171 45.829,500.516c-97.024,171.429 -331.983,289.807 -637.665,372.697c260.219,-87.695 457.47,-206.888 549.492,-370.674c89.493,-159.374 72.1,-351.539 -51.505,-570.734c-43.018,-80.081 -100.901,-156.284 -162.155,-236.982c-188.26,-247.912 -382.925,-504.254 -202,-928.54c184.719,-432.603 673.154,-606.279 1493.12,-531.144c667.927,61.227 1555.27,291.184 2712.62,703.134c812.803,289.33 1833.65,30.965 2864.3,-309.082c-1033.49,348.139 -2066.53,635.867 -2873.37,348.729Zm-7785.51,5153.64c-621.789,-257.831 -996.06,-800.636 -1001.23,-1452.01c-5.086,-641.543 340.384,-1223.83 859.727,-1448.84c49.537,-21.467 140.464,-36.499 262.102,-47.936c-508.076,226.867 -845.313,798.22 -840.339,1426.98c5.114,643.959 374.804,1180.47 988.895,1435.04c285.62,118.435 623.475,98.906 992.126,-5.76c-475.537,174.856 -909.742,238.274 -1261.28,92.528Zm11481.8,-4834.02c216.301,190.956 221.106,668.179 12.897,1276.68c-313.55,916.345 -1052.45,1930.95 -1699.39,1972.28l-3.091,0.394c-99.356,20.427 -201.943,29.7 -306.947,29.7c-645.982,-0 -1382.24,-352.382 -1990.58,-643.566c-439.374,-210.289 -818.871,-391.945 -1091.88,-416.756c-6.941,-0.618 -14.022,-0.899 -21.046,-1.348c25.317,-0.59 50.099,0.084 74.236,2.276c245.467,22.282 594.169,189.102 997.886,382.25c671.664,321.39 1507.42,721.286 2185.89,566.239c607.403,-40.658 1301.69,-996.116 1597.03,-1859.19c201.269,-588.183 191.687,-1035.85 -26.272,-1228.21c-140.099,-123.661 -318.13,-172.327 -522.518,-172.327c-269.969,-0 -585.824,85.026 -920.026,194.132c432.322,-147.545 843.879,-276.039 1182.27,-276.011c209.333,-0.056 390.737,49.172 531.538,173.452Z"/></clipPath><g clip-path="url(#_clip1)"><rect x="10374.4" y="-669.853" width="15956.9" height="7501.26" style="fill:url(#_Radial2);"/></g><defs><radialGradient id="_Radial2" cx="0" cy="0" r="1" gradientUnits="userSpaceOnUse" gradientTransform="matrix(6245.18,0,0,6184.07,18353,3081.42)"><stop offset="0" style="stop-color:#ec007e;stop-opacity:0.78"/><stop offset="0" style="stop-color:#eb017e;stop-opacity:0.78"/><stop offset="0.14" style="stop-color:#b93592;stop-opacity:0.78"/><stop offset="0.29" style="stop-color:#8e62a3;stop-opacity:0.78"/><stop offset="0.43" style="stop-color:#6b86b1;stop-opacity:0.78"/><stop offset="0.57" style="stop-color:#4fa3bb;stop-opacity:0.78"/><stop offset="0.72" style="stop-color:#3cb7c3;stop-opacity:0.78"/><stop offset="0.86" style="stop-color:#30c3c7;stop-opacity:0.78"/><stop offset="1" style="stop-color:#2cc7c9;stop-opacity:0.78"/></radialGradient></defs></svg>