<?xml version="1.0" standalone="no"?>
<!DOCTYPE svg PUBLIC "-//W3C//DTD SVG 20010904//EN"
 "http://www.w3.org/TR/2001/REC-SVG-20010904/DTD/svg10.dtd">
<svg version="1.0" xmlns="http://www.w3.org/2000/svg"
 width="700.000000pt" height="700.000000pt" viewBox="0 0 700.000000 700.000000"
 preserveAspectRatio="xMidYMid meet">
<metadata>
Created by potrace 1.14, written by Peter Selinger 2001-2017
</metadata>
<g transform="translate(0.000000,700.000000) scale(0.100000,-0.100000)"
fill="#000000" stroke="none">
<path d="M5759 6995 c-4 -15 -7 -23 -18 -50 -7 -16 -22 -55 -33 -85 -11 -30
-26 -68 -33 -85 -8 -16 -39 -97 -70 -180 -31 -82 -60 -159 -65 -170 -5 -11
-21 -51 -35 -90 -14 -38 -29 -79 -34 -90 -10 -21 -85 -216 -87 -225 0 -3 -6
-18 -13 -35 -7 -16 -14 -34 -15 -40 -2 -5 -9 -23 -15 -40 -7 -16 -22 -55 -33
-85 -12 -30 -25 -66 -31 -80 -6 -14 -11 -29 -13 -35 -1 -5 -19 -50 -38 -99
-20 -49 -36 -95 -36 -103 0 -7 -3 -13 -8 -13 -4 0 -13 -19 -20 -42 -12 -38
-35 -99 -73 -193 -7 -16 -13 -32 -13 -35 -2 -8 -37 -97 -89 -230 -27 -69 -50
-129 -51 -135 -2 -5 -7 -19 -11 -30 -5 -11 -84 -218 -177 -460 -92 -242 -172
-449 -177 -460 -14 -31 -36 -89 -36 -95 0 -3 -8 -24 -17 -45 -18 -40 -357
-921 -362 -940 -2 -5 -8 -21 -13 -35 -6 -14 -52 -133 -102 -265 -50 -132 -96
-249 -101 -260 -10 -21 -99 -253 -104 -270 -2 -5 -7 -19 -11 -30 -4 -11 -23
-60 -42 -110 -39 -101 -66 -171 -114 -295 -18 -47 -34 -87 -34 -90 -1 -3 -5
-14 -10 -25 -12 -31 -94 -242 -119 -310 -55 -145 -168 -442 -177 -460 -5 -11
-28 -72 -52 -135 -24 -63 -48 -124 -52 -135 -5 -11 -9 -22 -10 -25 -1 -3 -5
-14 -10 -25 -11 -28 -88 -230 -120 -315 l-13 -35 704 0 703 0 7 25 c9 31 9 32
17 50 12 28 129 365 132 383 2 9 7 23 12 30 4 6 8 17 9 22 4 24 9 40 14 45 3
3 15 34 26 70 12 36 54 157 94 270 40 113 82 234 94 270 11 36 25 68 31 72 5
4 7 8 3 8 -7 0 141 441 167 497 8 17 15 38 15 46 0 9 5 19 10 22 6 3 10 13 10
22 0 8 16 58 36 111 20 53 38 103 40 112 2 8 19 58 39 110 19 52 36 102 38
110 4 18 35 104 53 147 8 17 14 34 14 38 0 4 20 64 44 134 51 149 90 276 85
277 -2 0 1 7 7 15 7 8 24 50 39 94 15 44 32 91 38 105 5 14 11 30 13 35 1 6
10 30 19 55 9 25 43 122 76 215 33 94 62 177 66 185 3 8 7 20 9 25 5 18 218
632 228 655 3 8 24 69 46 135 22 66 42 125 44 130 2 6 5 15 6 20 1 6 7 21 12
35 16 41 88 244 92 261 2 8 11 32 20 52 8 21 15 38 15 40 -3 8 25 94 33 105 6
6 8 12 4 12 -3 0 4 24 15 53 18 46 66 184 73 212 2 6 8 22 14 38 6 15 23 62
37 105 15 42 33 91 40 107 12 24 139 385 149 420 2 6 6 17 9 25 8 19 83 235
110 320 12 36 26 68 32 72 5 4 7 8 2 8 -4 0 -1 16 7 35 9 20 15 36 15 38 0 1
2 9 5 17 3 8 42 120 86 248 43 128 82 237 85 242 4 6 -206 10 -574 10 -320 0
-582 -2 -582 -5z"/>
<path d="M2837 6314 c-1 -1 -85 -5 -187 -9 -202 -7 -273 -11 -365 -20 -33 -3
-82 -8 -110 -10 -64 -5 -150 -13 -195 -20 -19 -2 -53 -7 -75 -10 -33 -4 -189
-26 -285 -40 -14 -2 -36 -6 -50 -10 -14 -3 -45 -8 -70 -11 -25 -3 -48 -8 -51
-10 -3 -2 -21 -6 -40 -9 -19 -3 -81 -17 -139 -31 -58 -13 -115 -26 -128 -29
-12 -2 -26 -6 -30 -9 -5 -3 -21 -7 -37 -10 -44 -8 -251 -75 -350 -113 -130
-50 -280 -124 -359 -177 -38 -25 -72 -46 -75 -46 -4 0 -39 -33 -78 -74 -69
-71 -110 -133 -116 -175 -2 -11 -6 -24 -10 -27 -4 -4 -7 -157 -7 -340 0 -364
3 -386 60 -469 28 -39 89 -105 126 -135 50 -41 168 -116 170 -109 1 2 10 -3
20 -12 21 -17 110 -61 214 -105 80 -33 347 -121 391 -129 18 -3 36 -8 41 -11
5 -3 20 -7 34 -10 14 -3 51 -11 82 -20 32 -8 102 -24 157 -35 55 -11 107 -22
115 -24 13 -2 61 -10 125 -21 11 -1 47 -8 80 -13 33 -6 78 -13 100 -16 22 -2
60 -7 85 -10 81 -11 104 -14 155 -20 28 -3 68 -8 91 -11 22 -2 71 -7 110 -9
138 -10 197 -15 205 -21 5 -3 9 0 9 6 0 6 5 8 12 4 19 -12 211 -18 578 -18
336 0 547 4 562 11 4 2 52 6 105 9 159 8 195 11 202 20 7 9 71 168 71 177 0 3
8 22 17 43 9 22 18 44 19 49 2 8 59 155 89 230 5 11 9 22 9 25 1 3 15 39 31
80 16 41 30 77 31 80 0 3 6 19 13 35 6 17 32 84 58 150 25 66 49 129 54 140 5
11 28 72 52 135 24 63 47 124 52 135 5 11 9 22 10 25 1 3 6 16 12 30 6 14 26
68 46 120 20 52 55 142 77 200 23 58 42 111 43 118 0 6 4 12 9 12 4 0 7 3 6 8
0 4 2 16 6 27 5 11 36 92 70 181 l62 161 -40 11 c-23 6 -70 16 -106 22 -36 7
-74 14 -85 16 -50 10 -93 16 -127 17 -21 1 -38 4 -38 7 0 3 -15 7 -33 8 -18 1
-44 5 -57 7 -14 3 -45 7 -70 10 -25 3 -58 7 -75 10 -16 2 -61 7 -100 11 -38 3
-83 8 -100 9 -16 2 -68 6 -115 10 -47 3 -110 8 -140 10 -157 13 -813 28 -823
19z"/>
<path d="M80 3486 c0 -708 0 -713 56 -795 54 -80 169 -180 277 -240 20 -12 52
-29 70 -39 52 -30 339 -148 385 -159 21 -5 37 -10 52 -16 39 -15 331 -93 390
-103 14 -3 33 -7 42 -10 10 -3 30 -7 45 -10 16 -2 39 -7 53 -9 14 -3 36 -8 50
-10 14 -3 39 -7 55 -10 17 -2 39 -6 50 -9 17 -3 115 -19 209 -32 31 -5 85 -12
141 -18 17 -2 53 -6 80 -10 28 -3 75 -8 106 -10 30 -3 75 -7 100 -10 41 -5
123 -11 309 -22 41 -2 189 -6 328 -8 l254 -4 12 31 c7 18 34 88 61 157 26 69
53 139 60 155 7 17 29 73 48 125 20 52 64 165 97 250 34 85 62 160 64 165 2 6
7 19 11 30 53 129 255 665 255 674 0 9 -26 11 -107 6 -414 -24 -965 -19 -1330
10 -244 20 -316 27 -493 50 -30 4 -70 9 -89 11 -19 2 -46 6 -60 9 -14 2 -44 7
-66 9 -22 3 -49 7 -60 10 -11 2 -51 9 -90 17 -38 7 -78 13 -87 12 -10 0 -18 3
-18 7 0 4 -8 7 -17 7 -23 -1 -105 16 -258 55 -66 16 -131 32 -144 34 -14 3
-28 7 -33 10 -4 3 -16 7 -25 9 -28 5 -216 65 -238 75 -11 5 -57 23 -102 39
-45 17 -90 34 -100 40 -10 5 -65 32 -123 60 -58 27 -131 66 -162 85 l-58 35 0
-653z"/>
<path d="M80 1508 c0 -568 2 -661 16 -708 9 -29 22 -60 30 -67 8 -8 14 -20 14
-26 0 -28 218 -217 249 -217 6 0 11 -4 11 -8 0 -4 12 -13 28 -19 15 -6 38 -18
52 -26 54 -31 90 -47 196 -91 119 -48 145 -58 299 -105 92 -28 276 -75 335
-86 14 -3 36 -7 50 -10 14 -3 36 -8 50 -11 14 -2 45 -8 70 -14 25 -5 63 -12
85 -15 22 -4 51 -9 65 -12 38 -7 70 -12 120 -18 25 -3 56 -7 70 -10 89 -13
109 -16 140 -19 19 -2 62 -7 95 -10 124 -14 152 -17 237 -22 85 -5 88 -5 97
18 6 13 38 95 71 183 34 88 65 169 70 180 5 11 25 65 46 120 20 55 42 114 49
130 24 57 37 94 36 100 -1 3 5 18 13 33 16 27 97 237 100 258 1 7 7 18 13 25
5 8 14 28 18 44 10 37 9 34 23 68 7 16 12 31 12 34 0 3 6 19 14 36 17 37 106
267 109 282 2 6 6 16 11 23 6 10 3 13 -10 12 -11 -1 -21 -2 -24 -1 -3 1 -90 4
-195 6 -316 9 -661 33 -849 60 -17 3 -51 7 -76 10 -58 7 -98 12 -190 25 -101
15 -117 18 -138 24 -9 3 -35 7 -56 11 -21 3 -48 8 -60 10 -12 3 -38 7 -58 9
-21 3 -41 7 -46 10 -5 3 -24 8 -43 10 -19 3 -59 12 -90 20 -30 8 -66 17 -80
19 -13 2 -31 6 -39 9 -8 4 -37 11 -65 18 -27 6 -61 16 -75 22 -14 5 -35 12
-46 14 -12 2 -53 14 -90 26 -38 12 -71 22 -74 23 -3 1 -18 7 -33 13 -16 7 -34
12 -41 12 -6 0 -16 4 -22 8 -5 4 -27 14 -49 21 -81 28 -314 139 -371 177 -18
13 -34 21 -34 17 0 -3 -9 2 -20 12 -20 18 -20 17 -20 -637z"/>
</g>
</svg>
