<?xml version="1.0" encoding="UTF-8" standalone="no"?><!DOCTYPE svg PUBLIC "-//W3C//DTD SVG 1.1//EN" "http://www.w3.org/Graphics/SVG/1.1/DTD/svg11.dtd"><svg width="100%" height="100%" viewBox="0 0 450 1098" version="1.1" xmlns="http://www.w3.org/2000/svg" xmlns:xlink="http://www.w3.org/1999/xlink" xml:space="preserve" xmlns:serif="http://www.serif.com/" style="fill-rule:evenodd;clip-rule:evenodd;stroke-linejoin:round;stroke-miterlimit:2;"><rect id="iPhone-8" serif:id="iPhone 8" x="-0" y="0" width="450" height="1097.65" style="fill:none;"/><g opacity="0.55"><path d="M177.581,549.935l34.197,0c2.459,0 4.461,2.002 4.461,4.462c-0,2.46 -2.002,4.462 -4.461,4.462l-34.197,-0c-2.459,-0 -4.461,-2.003 -4.461,-4.462c0,-2.461 2.002,-4.462 4.461,-4.462Zm0,6.752l34.197,-0c1.263,-0 2.291,-1.027 2.291,-2.29c0,-1.264 -1.028,-2.291 -2.291,-2.291l-34.197,0c-1.262,0 -2.29,1.027 -2.29,2.291c-0,1.263 1.028,2.29 2.29,2.29Zm-89.703,-264.546c0.316,0.315 0.874,0.315 1.19,-0l17.929,-17.931c0.328,-0.328 0.328,-0.86 0,-1.189l-17.929,-17.93c-0.165,-0.164 -0.381,-0.247 -0.595,-0.247c-0.216,0 -0.431,0.083 -0.595,0.247l-17.931,17.93c-0.158,0.158 -0.246,0.371 -0.246,0.594c0,0.224 0.088,0.438 0.246,0.595l17.931,17.931Zm0.595,-35.266l16.74,16.74l-16.74,16.741l-16.741,-16.741l16.741,-16.74Zm321.265,-65.178c0.407,-0.407 1.127,-0.407 1.535,0l13.998,13.999c0.203,0.203 0.318,0.48 0.318,0.767c0,0.288 -0.115,0.564 -0.318,0.768l-13.998,13.999c-0.205,0.203 -0.48,0.318 -0.768,0.318c-0.289,-0 -0.564,-0.115 -0.767,-0.318l-13.999,-13.999c-0.423,-0.423 -0.423,-1.112 -0,-1.535l13.999,-13.999Zm0.767,27.229l12.463,-12.463l-12.463,-12.464l-12.464,12.464l12.464,12.463Z" style="fill:#58e0d9;fill-opacity:0.37;fill-rule:nonzero;"/><path d="M82.716,711.862c-0.373,-0.373 -1.034,-0.373 -1.407,-0l-21.202,21.203c-0.388,0.388 -0.388,1.017 0,1.406l21.202,21.202c0.194,0.194 0.45,0.292 0.703,0.292c0.255,-0 0.51,-0.098 0.704,-0.292l21.203,-21.202c0.187,-0.187 0.291,-0.439 0.291,-0.703c0,-0.265 -0.104,-0.517 -0.291,-0.703l-21.203,-21.203Zm-0.704,41.701l-19.795,-19.795l19.795,-19.796l19.797,19.796l-19.797,19.795Zm82.119,281.981c-0.482,0.481 -1.334,0.481 -1.815,-0l-16.554,-16.554c-0.24,-0.24 -0.376,-0.567 -0.376,-0.907c-0,-0.34 0.136,-0.666 0.376,-0.908l16.554,-16.553c0.241,-0.24 0.567,-0.376 0.907,-0.376c0.342,-0 0.668,0.136 0.908,0.376l16.553,16.553c0.501,0.501 0.501,1.315 0,1.815l-16.553,16.554Zm-0.908,-32.199l-14.737,14.738l14.737,14.738l14.739,-14.738l-14.739,-14.738Zm251.004,-322.931l-40.436,-0c-2.91,-0 -5.275,-2.367 -5.275,-5.277c-0,-2.908 2.365,-5.275 5.275,-5.275l40.436,-0c2.91,-0 5.276,2.367 5.276,5.276c-0,2.909 -2.366,5.276 -5.276,5.276Zm0,-7.985l-40.436,-0c-1.494,-0 -2.709,1.215 -2.709,2.709c-0,1.493 1.215,2.709 2.709,2.709l40.436,-0c1.494,-0 2.71,-1.216 2.71,-2.71c-0,-1.493 -1.216,-2.708 -2.71,-2.708Z" style="fill:#58e0d9;fill-opacity:0.37;fill-rule:nonzero;"/><path d="M337.613,876.505c0.541,0.539 0.541,1.493 -0,2.032l-18.595,18.526c-0.27,0.269 -0.637,0.421 -1.019,0.421c-0.382,0 -0.749,-0.152 -1.02,-0.421l-18.595,-18.526c-0.269,-0.27 -0.422,-0.635 -0.422,-1.016c0,-0.382 0.153,-0.747 0.422,-1.016l18.595,-18.526c0.563,-0.56 1.477,-0.56 2.039,-0l18.595,18.526Zm-36.169,1.016l16.555,16.494l16.556,-16.494l-16.556,-16.495l-16.555,16.495Zm105.594,-455.524c-0,16.095 -13.358,29.187 -29.776,29.187c-16.419,-0 -29.777,-13.092 -29.777,-29.187c0,-16.092 13.358,-29.183 29.777,-29.183c16.418,-0 29.776,13.091 29.776,29.183Zm-56,0c-0,14.175 11.763,25.706 26.224,25.706c14.461,0 26.224,-11.531 26.224,-25.706c-0,-14.175 -11.763,-25.703 -26.224,-25.703c-14.461,0 -26.224,11.528 -26.224,25.703Z" style="fill:#ed0a7e;fill-opacity:0.5;fill-rule:nonzero;"/></g></svg>